<mxfile host="app.diagrams.net" modified="2024-07-15T01:19:29.461Z" agent="Mozilla/5.0 (Windows NT 10.0; Win64; x64) AppleWebKit/537.36 (KHTML, like Gecko) Chrome/126.0.0.0 Safari/537.36" version="24.6.5" etag="2CuRU21COxyixkmb60qt" type="device">
  <diagram id="WbfkgATNPFZu0SWMD0hk" name="第 1 页">
    <mxGraphModel dx="2074" dy="1106" grid="1" gridSize="10" guides="1" tooltips="1" connect="1" arrows="1" fold="1" page="1" pageScale="1" pageWidth="827" pageHeight="1169" math="0" shadow="0">
      <root>
        <mxCell id="0" />
        <mxCell id="1" parent="0" />
        <mxCell id="aljdhSpL1PqAjNT_WMsM-13" style="edgeStyle=orthogonalEdgeStyle;rounded=0;orthogonalLoop=1;jettySize=auto;html=1;exitX=0.5;exitY=1;exitDx=0;exitDy=0;entryX=0.5;entryY=0;entryDx=0;entryDy=0;" edge="1" parent="1" source="aljdhSpL1PqAjNT_WMsM-1" target="aljdhSpL1PqAjNT_WMsM-2">
          <mxGeometry relative="1" as="geometry" />
        </mxCell>
        <mxCell id="aljdhSpL1PqAjNT_WMsM-15" style="edgeStyle=orthogonalEdgeStyle;rounded=0;orthogonalLoop=1;jettySize=auto;html=1;exitX=0.5;exitY=1;exitDx=0;exitDy=0;entryX=0.5;entryY=0;entryDx=0;entryDy=0;" edge="1" parent="1" source="aljdhSpL1PqAjNT_WMsM-1" target="aljdhSpL1PqAjNT_WMsM-4">
          <mxGeometry relative="1" as="geometry">
            <Array as="points">
              <mxPoint x="410" y="610" />
              <mxPoint x="260" y="610" />
            </Array>
          </mxGeometry>
        </mxCell>
        <mxCell id="aljdhSpL1PqAjNT_WMsM-16" style="edgeStyle=orthogonalEdgeStyle;rounded=0;orthogonalLoop=1;jettySize=auto;html=1;exitX=0.5;exitY=1;exitDx=0;exitDy=0;entryX=0.5;entryY=0;entryDx=0;entryDy=0;" edge="1" parent="1" source="aljdhSpL1PqAjNT_WMsM-1" target="aljdhSpL1PqAjNT_WMsM-3">
          <mxGeometry relative="1" as="geometry" />
        </mxCell>
        <mxCell id="aljdhSpL1PqAjNT_WMsM-18" style="edgeStyle=orthogonalEdgeStyle;rounded=0;orthogonalLoop=1;jettySize=auto;html=1;exitX=0.5;exitY=1;exitDx=0;exitDy=0;entryX=0.5;entryY=0;entryDx=0;entryDy=0;" edge="1" parent="1" source="aljdhSpL1PqAjNT_WMsM-1" target="aljdhSpL1PqAjNT_WMsM-17">
          <mxGeometry relative="1" as="geometry" />
        </mxCell>
        <mxCell id="aljdhSpL1PqAjNT_WMsM-1" value="上海证券交易所" style="rounded=0;whiteSpace=wrap;html=1;fontSize=16;" vertex="1" parent="1">
          <mxGeometry x="350" y="530" width="120" height="60" as="geometry" />
        </mxCell>
        <mxCell id="aljdhSpL1PqAjNT_WMsM-14" style="edgeStyle=orthogonalEdgeStyle;rounded=0;orthogonalLoop=1;jettySize=auto;html=1;exitX=0.5;exitY=1;exitDx=0;exitDy=0;entryX=0.5;entryY=0;entryDx=0;entryDy=0;" edge="1" parent="1" source="aljdhSpL1PqAjNT_WMsM-2" target="aljdhSpL1PqAjNT_WMsM-6">
          <mxGeometry relative="1" as="geometry" />
        </mxCell>
        <mxCell id="aljdhSpL1PqAjNT_WMsM-19" style="edgeStyle=orthogonalEdgeStyle;rounded=0;orthogonalLoop=1;jettySize=auto;html=1;exitX=0.5;exitY=1;exitDx=0;exitDy=0;" edge="1" parent="1" source="aljdhSpL1PqAjNT_WMsM-2" target="aljdhSpL1PqAjNT_WMsM-7">
          <mxGeometry relative="1" as="geometry" />
        </mxCell>
        <mxCell id="aljdhSpL1PqAjNT_WMsM-20" style="edgeStyle=orthogonalEdgeStyle;rounded=0;orthogonalLoop=1;jettySize=auto;html=1;exitX=0.5;exitY=1;exitDx=0;exitDy=0;entryX=0.5;entryY=0;entryDx=0;entryDy=0;" edge="1" parent="1" source="aljdhSpL1PqAjNT_WMsM-2" target="aljdhSpL1PqAjNT_WMsM-8">
          <mxGeometry relative="1" as="geometry" />
        </mxCell>
        <mxCell id="aljdhSpL1PqAjNT_WMsM-2" value="技术公司" style="rounded=0;whiteSpace=wrap;html=1;fontSize=16;" vertex="1" parent="1">
          <mxGeometry x="350" y="630" width="120" height="60" as="geometry" />
        </mxCell>
        <mxCell id="aljdhSpL1PqAjNT_WMsM-3" value="信息公司" style="rounded=0;whiteSpace=wrap;html=1;fontSize=16;" vertex="1" parent="1">
          <mxGeometry x="500" y="630" width="120" height="60" as="geometry" />
        </mxCell>
        <mxCell id="aljdhSpL1PqAjNT_WMsM-4" value="服务公司" style="rounded=0;whiteSpace=wrap;html=1;fontSize=16;" vertex="1" parent="1">
          <mxGeometry x="200" y="630" width="120" height="60" as="geometry" />
        </mxCell>
        <mxCell id="aljdhSpL1PqAjNT_WMsM-23" style="edgeStyle=orthogonalEdgeStyle;rounded=0;orthogonalLoop=1;jettySize=auto;html=1;exitX=0.5;exitY=1;exitDx=0;exitDy=0;entryX=0.5;entryY=0;entryDx=0;entryDy=0;" edge="1" parent="1" source="aljdhSpL1PqAjNT_WMsM-6" target="aljdhSpL1PqAjNT_WMsM-22">
          <mxGeometry relative="1" as="geometry" />
        </mxCell>
        <mxCell id="aljdhSpL1PqAjNT_WMsM-24" style="edgeStyle=orthogonalEdgeStyle;rounded=0;orthogonalLoop=1;jettySize=auto;html=1;exitX=0.5;exitY=1;exitDx=0;exitDy=0;entryX=0.5;entryY=0;entryDx=0;entryDy=0;" edge="1" parent="1" source="aljdhSpL1PqAjNT_WMsM-6" target="aljdhSpL1PqAjNT_WMsM-21">
          <mxGeometry relative="1" as="geometry" />
        </mxCell>
        <mxCell id="aljdhSpL1PqAjNT_WMsM-6" value="技术开发部" style="rounded=0;whiteSpace=wrap;html=1;fontSize=16;" vertex="1" parent="1">
          <mxGeometry x="350" y="730" width="120" height="60" as="geometry" />
        </mxCell>
        <mxCell id="aljdhSpL1PqAjNT_WMsM-7" value="系统运行部" style="rounded=0;whiteSpace=wrap;html=1;fontSize=16;" vertex="1" parent="1">
          <mxGeometry x="200" y="730" width="120" height="60" as="geometry" />
        </mxCell>
        <mxCell id="aljdhSpL1PqAjNT_WMsM-8" value="其他部门" style="rounded=0;whiteSpace=wrap;html=1;fontSize=16;" vertex="1" parent="1">
          <mxGeometry x="500" y="730" width="120" height="60" as="geometry" />
        </mxCell>
        <mxCell id="aljdhSpL1PqAjNT_WMsM-17" value="直属部门和其他子公司" style="rounded=0;whiteSpace=wrap;html=1;fontSize=16;" vertex="1" parent="1">
          <mxGeometry x="650" y="630" width="120" height="60" as="geometry" />
        </mxCell>
        <mxCell id="aljdhSpL1PqAjNT_WMsM-27" style="edgeStyle=orthogonalEdgeStyle;rounded=0;orthogonalLoop=1;jettySize=auto;html=1;exitX=0.5;exitY=1;exitDx=0;exitDy=0;entryX=0.5;entryY=0;entryDx=0;entryDy=0;" edge="1" parent="1" source="aljdhSpL1PqAjNT_WMsM-21" target="aljdhSpL1PqAjNT_WMsM-25">
          <mxGeometry relative="1" as="geometry" />
        </mxCell>
        <mxCell id="aljdhSpL1PqAjNT_WMsM-28" style="edgeStyle=orthogonalEdgeStyle;rounded=0;orthogonalLoop=1;jettySize=auto;html=1;exitX=0.5;exitY=1;exitDx=0;exitDy=0;entryX=0.5;entryY=0;entryDx=0;entryDy=0;" edge="1" parent="1" source="aljdhSpL1PqAjNT_WMsM-21" target="aljdhSpL1PqAjNT_WMsM-26">
          <mxGeometry relative="1" as="geometry" />
        </mxCell>
        <mxCell id="aljdhSpL1PqAjNT_WMsM-21" value="交易研发部" style="rounded=0;whiteSpace=wrap;html=1;fontSize=16;" vertex="1" parent="1">
          <mxGeometry x="440" y="830" width="120" height="60" as="geometry" />
        </mxCell>
        <mxCell id="aljdhSpL1PqAjNT_WMsM-22" value="业务研发部" style="rounded=0;whiteSpace=wrap;html=1;fontSize=16;" vertex="1" parent="1">
          <mxGeometry x="260" y="830" width="120" height="60" as="geometry" />
        </mxCell>
        <mxCell id="aljdhSpL1PqAjNT_WMsM-31" style="edgeStyle=orthogonalEdgeStyle;rounded=0;orthogonalLoop=1;jettySize=auto;html=1;exitX=0.5;exitY=1;exitDx=0;exitDy=0;entryX=0.5;entryY=0;entryDx=0;entryDy=0;" edge="1" parent="1" source="aljdhSpL1PqAjNT_WMsM-25" target="aljdhSpL1PqAjNT_WMsM-29">
          <mxGeometry relative="1" as="geometry" />
        </mxCell>
        <mxCell id="aljdhSpL1PqAjNT_WMsM-32" style="edgeStyle=orthogonalEdgeStyle;rounded=0;orthogonalLoop=1;jettySize=auto;html=1;exitX=0.5;exitY=1;exitDx=0;exitDy=0;entryX=0.5;entryY=0;entryDx=0;entryDy=0;" edge="1" parent="1" source="aljdhSpL1PqAjNT_WMsM-25" target="aljdhSpL1PqAjNT_WMsM-30">
          <mxGeometry relative="1" as="geometry" />
        </mxCell>
        <mxCell id="aljdhSpL1PqAjNT_WMsM-25" value="研发一部" style="rounded=0;whiteSpace=wrap;html=1;fontSize=16;" vertex="1" parent="1">
          <mxGeometry x="360" y="930" width="120" height="60" as="geometry" />
        </mxCell>
        <mxCell id="aljdhSpL1PqAjNT_WMsM-35" style="edgeStyle=orthogonalEdgeStyle;rounded=0;orthogonalLoop=1;jettySize=auto;html=1;exitX=1;exitY=0.5;exitDx=0;exitDy=0;entryX=0;entryY=0.5;entryDx=0;entryDy=0;" edge="1" parent="1" source="aljdhSpL1PqAjNT_WMsM-26" target="aljdhSpL1PqAjNT_WMsM-33">
          <mxGeometry relative="1" as="geometry" />
        </mxCell>
        <mxCell id="aljdhSpL1PqAjNT_WMsM-36" style="edgeStyle=orthogonalEdgeStyle;rounded=0;orthogonalLoop=1;jettySize=auto;html=1;exitX=1;exitY=0.5;exitDx=0;exitDy=0;entryX=0;entryY=0.5;entryDx=0;entryDy=0;" edge="1" parent="1" source="aljdhSpL1PqAjNT_WMsM-26" target="aljdhSpL1PqAjNT_WMsM-34">
          <mxGeometry relative="1" as="geometry" />
        </mxCell>
        <mxCell id="aljdhSpL1PqAjNT_WMsM-26" value="研发二部" style="rounded=0;whiteSpace=wrap;html=1;fontSize=16;" vertex="1" parent="1">
          <mxGeometry x="520" y="930" width="120" height="60" as="geometry" />
        </mxCell>
        <mxCell id="aljdhSpL1PqAjNT_WMsM-41" style="edgeStyle=orthogonalEdgeStyle;rounded=0;orthogonalLoop=1;jettySize=auto;html=1;exitX=0.5;exitY=1;exitDx=0;exitDy=0;entryX=0.5;entryY=0;entryDx=0;entryDy=0;" edge="1" parent="1" source="aljdhSpL1PqAjNT_WMsM-29" target="aljdhSpL1PqAjNT_WMsM-37">
          <mxGeometry relative="1" as="geometry">
            <Array as="points">
              <mxPoint x="340" y="1100" />
              <mxPoint x="110" y="1100" />
            </Array>
          </mxGeometry>
        </mxCell>
        <mxCell id="aljdhSpL1PqAjNT_WMsM-42" style="edgeStyle=orthogonalEdgeStyle;rounded=0;orthogonalLoop=1;jettySize=auto;html=1;exitX=0.5;exitY=1;exitDx=0;exitDy=0;entryX=0.5;entryY=0;entryDx=0;entryDy=0;" edge="1" parent="1" source="aljdhSpL1PqAjNT_WMsM-29" target="aljdhSpL1PqAjNT_WMsM-38">
          <mxGeometry relative="1" as="geometry">
            <Array as="points">
              <mxPoint x="340" y="1100" />
              <mxPoint x="260" y="1100" />
            </Array>
          </mxGeometry>
        </mxCell>
        <mxCell id="aljdhSpL1PqAjNT_WMsM-43" style="edgeStyle=orthogonalEdgeStyle;rounded=0;orthogonalLoop=1;jettySize=auto;html=1;exitX=0.5;exitY=1;exitDx=0;exitDy=0;entryX=0.5;entryY=0;entryDx=0;entryDy=0;" edge="1" parent="1" source="aljdhSpL1PqAjNT_WMsM-29" target="aljdhSpL1PqAjNT_WMsM-39">
          <mxGeometry relative="1" as="geometry">
            <Array as="points">
              <mxPoint x="340" y="1100" />
              <mxPoint x="400" y="1100" />
            </Array>
          </mxGeometry>
        </mxCell>
        <mxCell id="aljdhSpL1PqAjNT_WMsM-44" style="edgeStyle=orthogonalEdgeStyle;rounded=0;orthogonalLoop=1;jettySize=auto;html=1;exitX=0.5;exitY=1;exitDx=0;exitDy=0;entryX=0.5;entryY=0;entryDx=0;entryDy=0;" edge="1" parent="1" source="aljdhSpL1PqAjNT_WMsM-29" target="aljdhSpL1PqAjNT_WMsM-40">
          <mxGeometry relative="1" as="geometry">
            <Array as="points">
              <mxPoint x="340" y="1100" />
              <mxPoint x="540" y="1100" />
            </Array>
          </mxGeometry>
        </mxCell>
        <mxCell id="aljdhSpL1PqAjNT_WMsM-29" value="实时交易部" style="rounded=0;whiteSpace=wrap;html=1;fontSize=16;" vertex="1" parent="1">
          <mxGeometry x="280" y="1030" width="120" height="60" as="geometry" />
        </mxCell>
        <mxCell id="aljdhSpL1PqAjNT_WMsM-30" value="轻型化交易部" style="rounded=0;whiteSpace=wrap;html=1;fontSize=16;" vertex="1" parent="1">
          <mxGeometry x="440" y="1030" width="120" height="60" as="geometry" />
        </mxCell>
        <mxCell id="aljdhSpL1PqAjNT_WMsM-33" value="架构研发部" style="rounded=0;whiteSpace=wrap;html=1;fontSize=16;" vertex="1" parent="1">
          <mxGeometry x="680" y="880" width="120" height="60" as="geometry" />
        </mxCell>
        <mxCell id="aljdhSpL1PqAjNT_WMsM-34" value="新期权新竞价开发部" style="rounded=0;whiteSpace=wrap;html=1;fontSize=16;" vertex="1" parent="1">
          <mxGeometry x="680" y="980" width="120" height="60" as="geometry" />
        </mxCell>
        <mxCell id="aljdhSpL1PqAjNT_WMsM-37" value="新港股通新综业开发组" style="rounded=0;whiteSpace=wrap;html=1;fontSize=16;fillColor=#d5e8d4;strokeColor=#82b366;" vertex="1" parent="1">
          <mxGeometry x="50" y="1120" width="120" height="60" as="geometry" />
        </mxCell>
        <mxCell id="aljdhSpL1PqAjNT_WMsM-38" value="竞价期权组" style="rounded=0;whiteSpace=wrap;html=1;fontSize=16;" vertex="1" parent="1">
          <mxGeometry x="200" y="1120" width="120" height="60" as="geometry" />
        </mxCell>
        <mxCell id="aljdhSpL1PqAjNT_WMsM-39" value="综业港股通组" style="rounded=0;whiteSpace=wrap;html=1;fontSize=16;" vertex="1" parent="1">
          <mxGeometry x="340" y="1120" width="120" height="60" as="geometry" />
        </mxCell>
        <mxCell id="aljdhSpL1PqAjNT_WMsM-40" value="新债券组" style="rounded=0;whiteSpace=wrap;html=1;fontSize=16;" vertex="1" parent="1">
          <mxGeometry x="480" y="1120" width="120" height="60" as="geometry" />
        </mxCell>
      </root>
    </mxGraphModel>
  </diagram>
</mxfile>
